<?xml version="1.0" encoding="iso-8859-1"?>
<svg xmlns="http://www.w3.org/2000/svg" xmlns:xlink="http://www.w3.org/1999/xlink" version="1.1" id="Capa_1" x="0px" y="0px" viewBox="0 0 490 490" style="enable-background:new 0 0 490 490;" xml:space="preserve" width="512px" height="512px">
	<path d="M59,252.85l16.4,16.4l17.4-17.4l-34.4-34.4l-0.4-0.4l-11.6-11.6l-11.8,11.7l-0.2,0.2L0,251.75l17.4,17.4l16.9-16.9 c2.5,53.6,25.3,102,60.9,137.6c37.7,37.7,89.9,61.1,147.3,61.1h12.3v-24.7h-12.3C144.6,426.35,64.4,349.45,59,252.85z" fill="#a5c85a"/>
	<path d="M467.8,216.05l-16.9,16.9c-2.5-53.6-25.3-102-60.9-137.6c-37.7-37.7-89.8-61.1-147.3-61.1h-12.3v24.7h12.3 c97.9,0,178.1,76.9,183.5,173.5l-16.4-16.4l-17.4,17.4l34.4,34.4l0.4,0.4l11.6,11.6l11.8-11.8l0.2-0.2l34.4-34.4L467.8,216.05z" fill="#a5c85a"/>
	<path d="M242.6,122.75c-66.1,0-119.9,53.8-119.9,119.9s53.8,119.9,119.9,119.9s119.9-53.8,119.9-119.9S308.7,122.75,242.6,122.75z M207.2,160.65c-7.3,10.2-14.4,23-19.2,38.8h-23.6C174,182.25,189,168.45,207.2,160.65z M156.9,268.05c-2.4-8-3.7-16.5-3.7-25.3 c0-8.8,1.3-17.3,3.7-25.3h26.9c-1.3,7.9-2.1,16.3-2.1,25.3s0.8,17.5,2.1,25.3H156.9z M164.4,285.95H188 c4.8,15.7,11.9,28.6,19.2,38.8C189,316.85,174,303.15,164.4,285.95z M233.6,328.15c-8.7-8.8-19.5-22.6-26.6-42.2h26.6V328.15z M233.6,268.05h-31.5c-1.5-7.8-2.4-16.2-2.4-25.3c0-9.2,0.9-17.6,2.4-25.3h31.5V268.05z M233.6,199.35h-26.7 c7.1-19.7,18-33.6,26.7-42.3V199.35z M320.7,199.35h-23.6c-4.8-15.7-11.9-28.6-19.2-38.8C296.1,168.45,311.2,182.25,320.7,199.35z M251.5,157.25c8.7,8.8,19.5,22.6,26.6,42.2h-26.6V157.25z M251.5,217.35H283c1.5,7.8,2.4,16.2,2.4,25.3c0,9.2-0.9,17.6-2.4,25.3 h-31.6v-50.6H251.5z M251.5,285.95h26.7c-7.1,19.7-18,33.6-26.7,42.3V285.95z M277.9,324.75c7.3-10.2,14.4-23,19.2-38.8h23.6 C311.2,303.15,296.1,316.85,277.9,324.75z M331.9,242.65c0,8.8-1.3,17.3-3.7,25.3h-26.9c1.3-7.9,2.1-16.3,2.1-25.3 s-0.8-17.5-2.1-25.3h26.9C330.6,225.35,331.9,233.85,331.9,242.65z" fill="#a5c85a"/>
</svg>
